<!-- Generated by IcoMoon.io -->
<svg version="1.1" xmlns="http://www.w3.org/2000/svg" width="32" height="32" viewBox="0 0 32 32">
<title>account_avatar_people_profile_user_icon</title>
<path fill="#6a6e7c" d="M16 17.131c-4.725 0-8.569-3.844-8.569-8.569s3.844-8.563 8.569-8.563c4.725 0 8.569 3.844 8.569 8.569s-3.844 8.563-8.569 8.563zM16 1.275c-4.019 0-7.287 3.269-7.287 7.287s3.269 7.294 7.287 7.294c4.019 0 7.288-3.269 7.288-7.287s-3.269-7.294-7.288-7.294z"></path>
<path fill="#6a6e7c" d="M30.869 32c-0.35 0-0.637-0.288-0.637-0.637 0-7.844-6.381-14.225-14.225-14.225s-14.225 6.381-14.225 14.225c0 0.35-0.288 0.638-0.637 0.638s-0.637-0.288-0.637-0.637c0-4.144 1.613-8.037 4.544-10.963s6.825-4.544 10.963-4.544 8.038 1.613 10.962 4.544 4.544 6.825 4.544 10.962c-0.012 0.35-0.3 0.638-0.65 0.638z"></path>
</svg>
