<!-- Generated by IcoMoon.io -->
<svg version="1.1" xmlns="http://www.w3.org/2000/svg" width="32" height="32" viewBox="0 0 32 32">
<title>bag_shopping_icon</title>
<path fill="none" stroke="#000" stroke-linejoin="miter" stroke-linecap="round" stroke-miterlimit="10" stroke-width="1.28" d="M5.12 8.96l-2.56 22.4h26.88l-2.56-22.4h-21.76z"></path>
<path fill="none" stroke="#000" stroke-linejoin="miter" stroke-linecap="round" stroke-miterlimit="10" stroke-width="1.28" d="M21.76 12.16c0-0.794 0-4.326 0-5.12 0-3.181-2.579-5.76-5.76-5.76s-5.76 2.579-5.76 5.76c0 0.794 0 4.326 0 5.12"></path>
<path d="M23.040 12.16c0 0.707-0.573 1.28-1.28 1.28s-1.28-0.573-1.28-1.28c0-0.707 0.573-1.28 1.28-1.28s1.28 0.573 1.28 1.28z"></path>
<path d="M11.52 12.16c0 0.707-0.573 1.28-1.28 1.28s-1.28-0.573-1.28-1.28c0-0.707 0.573-1.28 1.28-1.28s1.28 0.573 1.28 1.28z"></path>
</svg>
