<!-- Generated by IcoMoon.io -->
<svg version="1.1" xmlns="http://www.w3.org/2000/svg" width="32" height="32" viewBox="0 0 32 32">
<title>chef_restaurant_food_icon</title>
<path d="M24 32h-16c-0.348 0-0.638-0.268-0.665-0.615l-1.289-16.754c-2.65-0.308-4.713-2.566-4.713-5.297 0-2.946 2.452-5.434 5.355-5.434 0.607 0 1.202 0.118 1.757 0.347 0.936-2.573 3.847-4.246 7.555-4.246 3.483 0 5.919 1.408 7.427 4.3 0.591-0.264 1.232-0.401 1.885-0.401 2.903 0.001 5.355 2.489 5.355 5.435 0 2.731-2.063 4.989-4.713 5.297l-1.289 16.754c-0.027 0.347-0.317 0.615-0.665 0.615zM8.617 30.667h14.765l1.286-16.718c0.027-0.347 0.317-0.615 0.665-0.615 2.206 0 4-1.794 4-4 0-2.417-2.119-4.101-4.021-4.101-0.655 0-1.266 0.183-1.816 0.545-0.163 0.107-0.367 0.138-0.555 0.082s-0.342-0.19-0.421-0.37c-1.255-2.835-3.326-4.156-6.52-4.156-3.438 0-6.039 1.61-6.473 4.006-0.040 0.22-0.187 0.405-0.393 0.493-0.205 0.089-0.442 0.068-0.629-0.055-0.55-0.362-1.161-0.545-1.816-0.545-1.903 0-4.022 1.684-4.022 4.101 0 2.206 1.794 4 4 4 0.348 0 0.638 0.268 0.665 0.615l1.286 16.718z"></path>
<path d="M24.417 26.667h-16.833c-0.368 0-0.667-0.298-0.667-0.667s0.299-0.667 0.667-0.667h16.833c0.368 0 0.667 0.298 0.667 0.667s-0.299 0.667-0.667 0.667z"></path>
<path d="M12.667 26.667c-0.368 0-0.667-0.298-0.667-0.667v-5.333c0-0.369 0.299-0.667 0.667-0.667s0.667 0.298 0.667 0.667v5.333c0 0.369-0.299 0.667-0.667 0.667z"></path>
<path d="M16 26.667c-0.368 0-0.667-0.298-0.667-0.667v-6.667c0-0.369 0.299-0.667 0.667-0.667s0.667 0.298 0.667 0.667v6.667c0 0.369-0.299 0.667-0.667 0.667z"></path>
<path d="M19.333 26.667c-0.368 0-0.667-0.298-0.667-0.667v-5.333c0-0.369 0.299-0.667 0.667-0.667s0.667 0.298 0.667 0.667v5.333c0 0.369-0.299 0.667-0.667 0.667z"></path>
</svg>
