<!-- Generated by IcoMoon.io -->
<svg version="1.1" xmlns="http://www.w3.org/2000/svg" width="32" height="32" viewBox="0 0 32 32">
<title>circle_colored_gradient_instagram_media_icon</title>
<path fill="#000" d="M32 16c0 8.837-7.163 16-16 16s-16-7.163-16-16c0-8.837 7.163-16 16-16s16 7.163 16 16z"></path>
<path fill="#fff" d="M21.622 11.393c0 0.572-0.464 1.036-1.035 1.036s-1.035-0.464-1.035-1.036c0-0.572 0.464-1.036 1.035-1.036s1.035 0.464 1.035 1.036z"></path>
<path fill="none" stroke="#fff" stroke-linejoin="miter" stroke-linecap="butt" stroke-miterlimit="10" stroke-width="1.4063" d="M19.794 16c0 2.095-1.699 3.794-3.794 3.794s-3.794-1.699-3.794-3.794c0-2.095 1.699-3.794 3.794-3.794s3.794 1.699 3.794 3.794z"></path>
<path fill="none" stroke="#fff" stroke-linejoin="miter" stroke-linecap="butt" stroke-miterlimit="10" stroke-width="1.4063" d="M7.98 19.141c0 2.848 2.309 5.156 5.156 5.156h5.728c2.848 0 5.156-2.309 5.156-5.156v-6.282c0-2.848-2.309-5.156-5.156-5.156h-5.728c-2.848 0-5.156 2.309-5.156 5.156v6.282z"></path>
</svg>
