<!-- Generated by IcoMoon.io -->
<svg version="1.1" xmlns="http://www.w3.org/2000/svg" width="32" height="32" viewBox="0 0 32 32">
<title>instagram_icon</title>
<path d="M18.342 16.931c0 1.371-1.112 2.483-2.483 2.483s-2.483-1.112-2.483-2.483c0-1.371 1.112-2.483 2.483-2.483s2.483 1.112 2.483 2.483z"></path>
<path d="M18.963 10.836h-6.208c-0.903 0-1.693 0.282-2.201 0.79s-0.79 1.298-0.79 2.201v6.208c0 0.903 0.282 1.693 0.847 2.258 0.564 0.508 1.298 0.79 2.201 0.79h6.152c0.903 0 1.693-0.282 2.201-0.79 0.564-0.508 0.847-1.298 0.847-2.201v-6.208c0-0.903-0.282-1.637-0.79-2.201-0.564-0.564-1.298-0.847-2.258-0.847zM15.859 20.769c-2.145 0-3.838-1.75-3.838-3.838 0-2.145 1.75-3.838 3.838-3.838s3.894 1.693 3.894 3.838c0 2.145-1.75 3.838-3.894 3.838zM19.866 13.827c-0.508 0-0.903-0.395-0.903-0.903s0.395-0.903 0.903-0.903 0.903 0.395 0.903 0.903-0.395 0.903-0.903 0.903z"></path>
<path d="M15.972 2.935c-7.675 0-13.884 6.208-13.884 13.884s6.208 13.884 13.884 13.884c7.675 0 13.884-6.208 13.884-13.884 0.056-7.675-6.208-13.884-13.884-13.884zM23.365 20.092c0 1.298-0.451 2.427-1.242 3.217s-1.919 1.185-3.16 1.185h-6.152c-1.242 0-2.37-0.395-3.16-1.185-0.847-0.79-1.242-1.919-1.242-3.217v-6.208c0-2.596 1.75-4.402 4.402-4.402h6.208c1.298 0 2.37 0.451 3.16 1.242s1.185 1.862 1.185 3.16v6.208z"></path>
</svg>
