<!-- Generated by IcoMoon.io -->
<svg version="1.1" xmlns="http://www.w3.org/2000/svg" width="32" height="32" viewBox="0 0 32 32">
<title>twitter_icon</title>
<path d="M16.001 2.911c-7.676 0-13.899 6.224-13.899 13.899 0 7.676 6.223 13.898 13.899 13.898s13.898-6.222 13.898-13.898c0-7.675-6.222-13.899-13.898-13.899zM23.002 14.008c0.007 0.15 0.010 0.301 0.010 0.453 0 4.629-3.523 9.966-9.966 9.966-1.978 0-3.82-0.58-5.37-1.573 0.274 0.032 0.553 0.049 0.835 0.049 1.641 0 3.152-0.56 4.35-1.499-1.532-0.029-2.826-1.042-3.271-2.433 0.213 0.042 0.433 0.063 0.659 0.063 0.319 0 0.629-0.042 0.923-0.122-1.603-0.322-2.81-1.738-2.81-3.434 0-0.015 0-0.030 0.001-0.045 0.472 0.262 1.012 0.42 1.587 0.439-0.94-0.629-1.558-1.7-1.558-2.916 0-0.642 0.173-1.244 0.474-1.761 1.728 2.119 4.309 3.514 7.22 3.659-0.060-0.256-0.091-0.524-0.091-0.798 0-1.934 1.568-3.502 3.503-3.502 1.008 0 1.917 0.426 2.556 1.106 0.798-0.156 1.548-0.449 2.224-0.85-0.262 0.818-0.817 1.505-1.541 1.938 0.709-0.085 1.385-0.273 2.012-0.551-0.468 0.704-1.063 1.321-1.748 1.815z"></path>
</svg>
